<?xml version="1.0" standalone="no"?>
<!DOCTYPE svg PUBLIC "-//W3C//DTD SVG 20010904//EN"
 "http://www.w3.org/TR/2001/REC-SVG-20010904/DTD/svg10.dtd">
<svg version="1.0" xmlns="http://www.w3.org/2000/svg"
 width="417.000000pt" height="417.000000pt" viewBox="0 0 417.000000 417.000000"
 preserveAspectRatio="xMidYMid meet">

<g transform="translate(0.000000,417.000000) scale(0.100000,-0.100000)"
fill="#000000" stroke="none">
<path d="M2382 3963 c-5 -10 -12 -30 -16 -45 -3 -16 -13 -28 -21 -28 -12 0
-55 -49 -55 -64 0 -3 11 -6 25 -6 30 0 31 -10 9 -93 -31 -119 0 -162 111 -155
35 2 66 6 68 8 3 3 2 19 0 37 -5 29 -8 32 -33 26 -42 -8 -50 18 -33 95 l15 64
33 -6 c31 -6 36 -4 50 23 20 40 20 39 -21 47 -35 6 -36 7 -30 44 3 21 9 45 12
54 9 25 -102 23 -114 -1z"/>
<path d="M2023 3929 c-123 -36 -154 -257 -43 -314 36 -19 90 -19 115 -1 17 12
21 12 31 -2 10 -14 15 -14 50 -1 28 11 38 21 37 35 -1 10 4 71 12 134 22 170
23 164 -27 156 -24 -4 -47 -11 -52 -16 -4 -4 -23 -2 -42 6 -37 16 -37 16 -81
3z m91 -82 c15 -11 16 -22 10 -76 -9 -79 -33 -111 -67 -88 -19 13 -22 24 -22
82 0 54 4 69 19 81 24 17 37 18 60 1z"/>
<path d="M1705 3901 c-48 -22 -69 -44 -90 -94 -32 -76 -7 -166 58 -206 42 -26
118 -28 172 -5 36 15 37 17 30 52 -9 47 -10 48 -40 34 -58 -27 -108 -8 -121
44 -16 63 24 104 103 107 47 2 48 3 50 35 1 22 -4 35 -17 42 -29 16 -101 11
-145 -9z"/>
<path d="M1029 3855 c-24 -21 -46 -39 -48 -41 -2 -2 6 -26 18 -53 27 -65 27
-74 -4 -68 -30 5 -77 -24 -109 -66 -30 -41 -28 -128 4 -187 54 -96 144 -117
205 -46 25 28 33 32 40 20 8 -12 18 -7 52 26 l42 41 -24 67 c-37 106 -115 313
-124 329 -6 11 -17 7 -52 -22z m23 -242 c8 -10 23 -40 32 -66 17 -44 17 -49 1
-73 -32 -49 -61 -41 -96 27 -24 49 -24 84 1 109 25 25 42 25 62 3z"/>
<path d="M2945 3855 c-8 -21 -12 -42 -8 -46 5 -3 29 -10 55 -13 l47 -7 21 41
c12 23 19 44 17 47 -3 2 -30 7 -60 10 l-56 6 -16 -38z"/>
<path d="M1458 3854 c-27 -13 -48 -30 -48 -37 1 -6 7 -41 15 -77 20 -90 19
-126 -5 -150 -40 -40 -53 -21 -80 122 -11 55 -22 103 -24 105 -8 8 -96 -49
-96 -62 0 -35 43 -223 56 -242 29 -45 91 -42 148 8 29 25 36 27 43 15 7 -13
16 -10 57 16 41 27 47 35 42 57 -2 14 -15 81 -27 149 -13 67 -25 122 -29 122
-3 -1 -26 -12 -52 -26z"/>
<path d="M2572 3698 c-29 -79 -52 -146 -52 -150 0 -10 46 -10 88 -2 29 6 34
14 63 91 36 93 51 108 109 98 36 -6 40 -4 54 24 26 50 22 55 -43 48 -55 -6
-59 -5 -54 13 5 18 0 20 -54 20 l-59 0 -52 -142z"/>
<path d="M2836 3631 c-36 -72 -66 -138 -66 -146 0 -12 13 -15 59 -15 l58 0 62
130 c33 72 61 135 61 140 0 6 -15 10 -32 10 -18 0 -43 3 -55 6 -20 5 -29 -7
-87 -125z"/>
<path d="M679 3664 c-7 -8 -52 -45 -101 -81 l-88 -65 0 -55 c0 -50 1 -53 19
-43 11 5 22 10 25 10 13 0 56 -90 56 -119 0 -26 3 -31 18 -27 20 7 62 -58 62
-96 0 -50 13 -49 106 7 50 30 96 61 103 69 7 8 11 35 9 60 l-3 46 -60 -40
c-33 -22 -63 -40 -66 -40 -3 0 -13 16 -23 37 l-17 36 26 21 c23 19 26 26 20
59 -9 48 -21 54 -56 28 -36 -27 -43 -26 -57 4 -17 37 -17 38 34 74 41 30 45
36 39 65 -15 72 -21 79 -46 50z"/>
<path d="M3065 3627 c-79 -45 -111 -132 -77 -210 16 -36 30 -49 73 -70 73 -37
101 -35 121 5 l15 32 -46 16 c-59 20 -80 53 -61 99 15 37 62 65 95 57 13 -3
38 -18 55 -33 l32 -27 19 25 c25 32 24 51 -4 77 -57 54 -155 67 -222 29z"/>
<path d="M3340 3468 c-50 -26 -86 -73 -96 -125 -15 -82 62 -178 153 -190 34
-4 43 -2 57 18 23 33 21 37 -20 45 -43 8 -94 49 -94 75 0 23 -5 24 54 -6 98
-50 176 -21 176 65 0 58 -22 95 -73 119 -56 27 -102 27 -157 -1z m144 -91 c15
-24 -8 -37 -45 -27 -45 13 -52 20 -38 36 16 20 69 14 83 -9z"/>
<path d="M1800 2728 c0 -28 -68 -86 -103 -90 -24 -2 -32 -8 -32 -22 0 -19 12
-29 49 -41 15 -4 17 -8 8 -17 -19 -19 -14 -29 13 -22 17 4 25 2 25 -7 0 -9 7
-6 21 8 25 25 18 60 -13 65 -38 5 -30 23 11 23 25 0 37 -4 34 -11 -2 -7 1 -15
8 -20 8 -4 10 -3 5 5 -8 12 10 41 25 41 12 0 11 -57 -1 -65 -5 -3 -10 -14 -10
-25 0 -10 -16 -31 -36 -47 -29 -23 -35 -34 -30 -51 9 -28 51 -29 68 -2 7 11
18 20 24 20 6 0 17 7 24 15 16 20 36 19 44 -1 8 -22 -11 -44 -39 -44 -13 0
-33 -9 -46 -21 l-24 -20 25 6 c14 4 37 13 52 20 21 10 31 10 43 1 15 -11 14
-13 -4 -30 -12 -11 -24 -16 -28 -12 -4 4 -17 -10 -29 -29 l-22 -37 -16 23
c-21 30 -21 7 0 -33 9 -17 20 -52 24 -77 l7 -46 8 33 c5 22 13 32 26 32 23 0
24 4 -6 -127 -3 -13 -1 -23 5 -23 5 0 13 18 16 40 4 22 9 40 13 40 3 0 6 21 6
48 0 33 -5 51 -18 62 -24 20 -10 61 30 87 15 10 36 27 45 38 13 16 19 18 29 8
10 -11 9 -18 -9 -40 -52 -65 -56 -74 -42 -83 12 -7 11 -13 -5 -30 -18 -20 -19
-23 -3 -34 10 -8 16 -22 13 -34 -5 -27 5 -28 28 -2 25 30 69 26 94 -9 16 -21
19 -31 10 -40 -6 -6 -7 -11 -2 -11 17 0 62 -45 66 -65 5 -22 31 -31 57 -19 24
10 126 4 133 -8 11 -18 69 1 69 23 0 36 -43 52 -120 45 l-70 -7 -45 97 c-51
109 -80 148 -190 255 -80 78 -145 169 -165 232 -6 21 -16 34 -22 31 -6 -4 -14
0 -19 7 -7 11 -9 11 -9 -3z m37 -61 c-2 -6 -12 -12 -23 -12 -10 -1 -18 -6 -16
-13 3 -16 -13 -15 -27 2 -10 11 -9 16 3 23 26 14 68 15 63 0z m7 -171 c-9 -14
-22 -26 -29 -26 -8 0 -16 -8 -19 -17 -3 -11 -4 -7 -3 7 1 15 11 29 25 35 12 5
25 19 29 30 3 11 8 15 10 8 2 -6 -3 -23 -13 -37z m62 -157 c-5 -37 -20 -56
-30 -40 -7 10 19 71 30 71 3 0 3 -14 0 -31z"/>
<path d="M1222 2433 c-34 -7 -86 -64 -100 -110 -19 -63 -15 -177 7 -221 38
-73 107 -110 184 -98 103 17 147 82 147 217 -1 144 -47 208 -158 214 -31 2
-67 1 -80 -2z m103 -79 c37 -15 62 -118 45 -189 -18 -78 -93 -110 -140 -60
-20 21 -25 39 -28 95 -2 38 -1 81 2 95 13 51 69 78 121 59z"/>
<path d="M1835 2282 c4 -8 11 -26 15 -40 7 -22 8 -23 9 -6 1 11 -6 29 -15 40
-8 10 -12 13 -9 6z"/>
<path d="M2049 2178 c0 -2 -3 -19 -5 -38 -7 -49 -12 -62 -24 -55 -5 3 -10 1
-10 -4 0 -6 -8 -11 -17 -11 -17 -1 -17 -1 0 -14 13 -10 17 -28 17 -80 l0 -66
-75 0 -75 0 0 70 c0 40 4 70 10 70 6 0 10 5 10 10 0 6 -7 10 -15 10 -19 0 -19
9 0 34 16 21 20 46 8 46 -5 0 -15 -13 -25 -29 -11 -20 -26 -31 -45 -33 l-28
-3 -3 -211 -2 -212 40 -4 c23 -2 43 -2 46 1 2 2 4 42 4 88 l0 84 73 -3 72 -3
3 -82 3 -83 39 0 40 0 0 210 c0 203 -1 210 -20 210 -30 0 -27 45 5 66 27 18
25 34 -6 34 -10 0 -19 -1 -20 -2z"/>
<path d="M2070 2115 c0 -16 16 -20 24 -6 3 5 -1 11 -9 15 -9 3 -15 0 -15 -9z"/>
<path d="M2460 1680 l0 -40 60 0 60 0 0 -170 0 -170 40 0 40 0 0 170 0 170 59
0 c64 0 72 8 63 58 -4 22 -6 22 -163 22 l-159 0 0 -40z"/>
<path d="M1365 986 c-77 -34 -131 -108 -142 -195 -14 -117 69 -213 196 -228
l48 -5 16 41 c10 23 17 43 17 45 0 2 -18 6 -41 10 -100 16 -130 65 -93 154 24
56 62 86 110 85 28 -1 46 -10 79 -43 l43 -42 17 52 c17 51 17 52 -6 77 -53 57
-172 81 -244 49z"/>
<path d="M2405 978 c-22 -11 -42 -22 -44 -24 -2 -2 0 -23 3 -48 l7 -45 47 20
c62 27 64 29 56 77 -7 48 -13 49 -69 20z"/>
<path d="M2745 951 c-22 -10 -49 -28 -59 -40 -22 -25 -36 -27 -36 -6 0 20 -2
20 -54 -16 -26 -17 -46 -37 -46 -45 0 -31 84 -294 94 -294 6 0 29 15 50 33
l39 34 -27 94 c-26 92 -26 94 -8 119 11 14 28 26 40 28 27 4 42 -26 72 -140
13 -49 28 -88 33 -88 11 0 87 49 87 56 0 13 -53 186 -67 217 -9 21 -29 45 -44
53 -34 17 -26 17 -74 -5z"/>
<path d="M2423 827 c-29 -14 -43 -27 -43 -41 0 -27 30 -267 35 -284 3 -8 20
-2 56 19 l51 32 -6 61 c-19 174 -29 236 -40 235 -6 0 -30 -10 -53 -22z"/>
<path d="M1691 814 c-48 -20 -96 -90 -101 -144 -6 -74 0 -101 34 -137 29 -32
40 -37 77 -37 24 0 52 3 62 8 13 6 17 4 17 -9 0 -15 6 -17 38 -11 20 3 43 6
51 6 8 0 11 7 8 19 -3 11 12 80 33 153 l38 133 -47 6 c-25 4 -50 3 -54 -1 -5
-4 -25 1 -45 11 -43 23 -66 23 -111 3z m109 -82 l22 -18 -18 -60 c-23 -74 -31
-86 -63 -82 -51 6 -51 108 0 159 24 24 31 24 59 1z"/>
<path d="M2045 792 l-50 -17 -7 -155 c-4 -85 -4 -158 0 -161 4 -4 30 2 58 13
l51 20 6 95 c7 100 18 126 58 136 11 3 26 -2 35 -10 13 -13 14 -33 9 -123 -4
-60 -5 -112 -1 -118 4 -6 24 -4 56 6 l50 17 2 80 c5 166 3 187 -26 212 -32 27
-54 28 -123 4 -51 -17 -53 -17 -53 1 0 21 0 21 -65 0z"/>
</g>
</svg>
